<?xml version="1.0" encoding="UTF-8"?>
<svg width="629px" height="629px" viewBox="0 0 629 629" xmlns="http://www.w3.org/2000/svg" xmlns:xlink="http://www.w3.org/1999/xlink" version="1.1">
 <!-- Generated by Pixelmator Pro 2.0.8 -->
 <g id="open-box">
  <path id="Path" d="M377.009 449.976 C375.889 450.585 374.659 450.874 373.439 450.874 371.499 450.874 369.579 450.124 368.139 448.685 L316.199 396.746 C314.779 395.326 313.999 393.406 313.999 391.435 313.999 393.406 313.219 395.326 311.799 396.746 L259.859 448.685 C258.419 450.124 256.499 450.874 254.559 450.874 253.339 450.874 252.109 450.585 250.989 449.976 L121.5 379.792 121.5 521.478 C121.499 521.738 121.512 521.996 121.538 522.251 121.549 522.36 121.57 522.466 121.585 522.573 121.604 522.704 121.619 522.835 121.645 522.964 121.677 523.128 121.721 523.286 121.763 523.444 121.783 523.518 121.798 523.592 121.82 523.665 121.869 523.827 121.928 523.983 121.987 524.14 122.013 524.21 122.035 524.281 122.064 524.351 122.122 524.492 122.189 524.628 122.255 524.765 122.296 524.849 122.333 524.933 122.377 525.017 122.437 525.128 122.503 525.236 122.568 525.343 122.63 525.446 122.689 525.55 122.755 525.652 122.81 525.736 122.872 525.814 122.931 525.894 123.016 526.013 123.1 526.13 123.192 526.244 123.243 526.307 123.3 526.365 123.353 526.426 123.459 526.549 123.565 526.67 123.679 526.785 123.739 526.846 123.803 526.9 123.865 526.957 123.979 527.065 124.091 527.172 124.212 527.272 124.329 527.37 124.453 527.457 124.575 527.547 124.647 527.6 124.714 527.656 124.788 527.707 125.003 527.852 125.226 527.986 125.456 528.111 L310.432 628.097 C311.546 628.699 312.772 628.999 313.999 628.999 315.226 628.999 316.453 628.698 317.565 628.097 L502.541 528.111 C502.771 527.986 502.994 527.851 503.209 527.707 503.283 527.656 503.351 527.6 503.422 527.547 503.545 527.457 503.669 527.369 503.785 527.272 503.906 527.172 504.018 527.065 504.132 526.957 504.193 526.9 504.258 526.846 504.317 526.785 504.431 526.67 504.537 526.549 504.643 526.426 504.696 526.365 504.753 526.307 504.804 526.244 504.896 526.131 504.98 526.014 505.065 525.894 505.124 525.814 505.186 525.736 505.241 525.652 505.307 525.55 505.366 525.447 505.428 525.343 505.493 525.235 505.56 525.128 505.619 525.017 505.663 524.933 505.7 524.849 505.741 524.765 505.807 524.628 505.874 524.492 505.932 524.351 505.961 524.281 505.983 524.21 506.009 524.14 506.068 523.984 506.127 523.827 506.176 523.665 506.198 523.593 506.213 523.518 506.233 523.444 506.275 523.286 506.319 523.128 506.351 522.964 506.377 522.835 506.392 522.704 506.411 522.573 506.426 522.466 506.448 522.36 506.458 522.251 506.484 521.995 506.497 521.737 506.496 521.478 L506.496 379.792 Z" fill="#e2ae83" fill-opacity="1" stroke="none"/>
  <path id="Path-1" d="M310.069 183.044 C312.149 181.925 313.579 179.874 313.919 177.534 313.969 177.175 313.999 176.815 313.999 176.454 313.999 176.815 314.029 177.175 314.079 177.524 314.419 179.864 315.849 181.905 317.929 183.034 L502.929 283.034 C504.059 283.645 505.279 283.934 506.499 283.934 505.279 283.934 504.059 284.235 502.929 284.844 L317.929 384.844 C315.849 385.965 314.419 388.014 314.079 390.354 314.029 390.715 313.999 391.075 313.999 391.434 313.999 391.075 313.969 390.715 313.919 390.354 313.579 388.014 312.149 385.965 310.069 384.844 L125.069 284.844 C124.079 284.315 123.019 284.014 121.959 283.944 123.019 283.874 124.079 283.575 125.069 283.044 Z" fill="#c48d69" fill-opacity="1" stroke="none"/>
  <path id="Path-2" d="M565.359 223.406 C565.699 225.746 564.929 228.105 563.259 229.785 L511.819 281.717 C510.379 283.176 508.449 283.936 506.499 283.936 505.279 283.936 504.059 283.647 502.929 283.036 L317.929 183.036 C315.849 181.907 314.419 179.866 314.079 177.526 314.029 177.176 313.999 176.817 313.999 176.456 313.999 176.446 313.999 176.446 313.999 176.436 313.999 174.467 314.779 172.545 316.199 171.137 L368.139 119.196 C370.479 116.846 374.089 116.327 377.009 117.907 L561.509 217.907 C563.589 219.025 565.009 221.066 565.359 223.406 Z" fill="#d39c72" fill-opacity="1" stroke="none"/>
  <path id="Path-3" d="M563.259 338.095 C564.929 339.775 565.699 342.136 565.359 344.476 565.009 346.806 563.589 348.845 561.509 349.976 L377.009 449.976 C375.889 450.585 374.659 450.874 373.439 450.874 371.499 450.874 369.579 450.124 368.139 448.685 L316.199 396.746 C314.779 395.326 313.999 393.406 313.999 391.435 313.999 391.076 314.029 390.716 314.079 390.355 314.419 388.015 315.849 385.966 317.929 384.845 L502.929 284.845 C504.059 284.236 505.279 283.935 506.499 283.935 508.449 283.935 510.379 284.705 511.819 286.156 Z" fill="#f2c397" fill-opacity="1" stroke="none"/>
  <g id="group">
   <path id="Path-4" d="M563.259 338.095 L511.819 286.156 C510.379 284.705 508.449 283.935 506.499 283.935 505.279 283.935 504.059 284.236 502.929 284.845 L483.397 295.409 C484.527 294.8 485.747 294.499 486.967 294.499 488.917 294.499 490.847 295.269 492.287 296.72 L543.727 348.659 C545.397 350.339 546.168 352.7 545.827 355.04 545.477 357.37 544.057 359.409 541.977 360.54 L561.509 349.976 C563.589 348.845 565.009 346.806 565.359 344.476 565.699 342.136 564.929 339.775 563.259 338.095 Z" fill="#e2ae83" fill-opacity="1" stroke="none"/>
   <path id="Path-5" d="M313.999 176.435 L313.999 176.455 C313.999 176.816 313.969 177.176 313.919 177.535 313.579 179.875 312.149 181.926 310.069 183.045 L125.069 283.045 C124.079 283.576 123.019 283.875 121.959 283.945 121.749 283.935 121.529 283.935 121.319 283.945 119.429 283.906 117.579 283.146 116.179 281.736 L64.739 229.794 C63.069 228.114 62.299 225.755 62.639 223.415 62.989 221.085 64.409 219.044 66.489 217.915 L250.989 117.915 C253.909 116.335 257.519 116.864 259.859 119.204 L311.799 171.145 C313.219 172.566 313.989 174.476 313.999 176.435 Z" fill="#e2ae83" fill-opacity="1" stroke="none"/>
  </g>
  <path id="Path-6" d="M313.919 390.355 C313.969 390.716 313.999 391.076 313.999 391.435 313.999 393.406 313.219 395.326 311.799 396.746 L259.859 448.685 C258.419 450.124 256.499 450.874 254.559 450.874 253.339 450.874 252.109 450.585 250.989 449.976 L66.489 349.976 C64.409 348.845 62.989 346.806 62.639 344.476 62.299 342.136 63.069 339.775 64.739 338.095 L116.179 286.156 C117.579 284.746 119.429 283.986 121.319 283.945 121.379 283.955 121.439 283.955 121.499 283.955 121.649 283.955 121.799 283.955 121.959 283.945 123.019 284.015 124.079 284.316 125.069 284.845 L310.069 384.845 C312.149 385.966 313.579 388.015 313.919 390.355 Z" fill="#ffd2a6" fill-opacity="1" stroke="none"/>
  <path id="Path-7" d="M121.959 283.945 C121.799 283.955 121.649 283.955 121.499 283.955 121.439 283.955 121.379 283.955 121.319 283.945 121.529 283.935 121.749 283.935 121.959 283.945 Z" fill="#e2ae83" fill-opacity="1" stroke="none"/>
  <path id="Path-8" d="M504.332 380.966 C504.234 381.154 504.133 381.224 504.03 381.13 L504.029 381.13 476.495 396.054 476.495 537.729 C476.495 537.989 476.483 538.247 476.457 538.502 476.446 538.611 476.425 538.717 476.41 538.824 476.391 538.955 476.376 539.086 476.35 539.215 476.318 539.379 476.274 539.537 476.232 539.695 476.212 539.769 476.197 539.843 476.175 539.916 476.126 540.078 476.067 540.234 476.008 540.391 475.982 540.461 475.96 540.532 475.931 540.602 475.873 540.743 475.806 540.879 475.74 541.016 475.7 541.1 475.662 541.184 475.618 541.268 475.558 541.379 475.492 541.487 475.427 541.594 475.366 541.698 475.306 541.801 475.24 541.903 475.185 541.987 475.123 542.065 475.064 542.145 474.979 542.264 474.895 542.381 474.803 542.495 474.752 542.558 474.695 542.616 474.642 542.677 474.535 542.8 474.43 542.921 474.316 543.036 474.256 543.097 474.192 543.151 474.131 543.208 474.017 543.315 473.905 543.423 473.784 543.522 473.667 543.62 473.543 543.708 473.421 543.797 473.349 543.85 473.282 543.906 473.208 543.957 473.159 543.989 473.106 544.017 473.057 544.049 L502.543 528.11 C502.773 527.985 502.996 527.85 503.211 527.706 503.285 527.655 503.353 527.599 503.424 527.546 503.547 527.456 503.671 527.368 503.787 527.271 503.908 527.171 504.02 527.064 504.134 526.956 504.195 526.899 504.26 526.845 504.319 526.784 504.433 526.669 504.539 526.548 504.645 526.425 504.698 526.364 504.755 526.306 504.806 526.243 504.898 526.13 504.982 526.013 505.067 525.893 505.126 525.813 505.188 525.735 505.243 525.651 505.309 525.549 505.368 525.446 505.43 525.342 505.495 525.234 505.562 525.127 505.621 525.016 505.665 524.932 505.702 524.848 505.743 524.764 505.809 524.627 505.876 524.491 505.934 524.35 505.963 524.28 505.985 524.209 506.011 524.139 506.07 523.983 506.129 523.826 506.178 523.664 506.2 523.592 506.215 523.517 506.235 523.443 506.277 523.285 506.321 523.127 506.353 522.963 506.379 522.834 506.394 522.703 506.413 522.572 506.428 522.465 506.45 522.359 506.46 522.25 506.486 521.994 506.499 521.736 506.498 521.477 L506.498 379.792 Z" fill="#d39c72" fill-opacity="1" stroke="none"/>
  <path id="Path-9" d="M311.799 396.746 L259.859 448.685 C258.419 450.124 256.499 450.874 254.559 450.874 253.339 450.874 252.109 450.585 250.989 449.976 L121.5 379.792 121.5 521.478 C121.499 521.738 121.512 521.996 121.538 522.251 121.549 522.36 121.57 522.466 121.585 522.573 121.604 522.704 121.619 522.835 121.645 522.964 121.677 523.128 121.721 523.286 121.763 523.444 121.783 523.518 121.798 523.592 121.82 523.665 121.869 523.827 121.928 523.983 121.987 524.14 122.013 524.21 122.035 524.281 122.064 524.351 122.122 524.492 122.189 524.628 122.255 524.765 122.296 524.849 122.333 524.933 122.377 525.017 122.437 525.128 122.503 525.236 122.568 525.343 122.63 525.446 122.689 525.55 122.755 525.652 122.81 525.736 122.872 525.814 122.931 525.894 123.016 526.013 123.1 526.13 123.192 526.244 123.243 526.307 123.3 526.365 123.353 526.426 123.459 526.549 123.565 526.67 123.679 526.785 123.739 526.846 123.803 526.9 123.865 526.957 123.979 527.065 124.091 527.172 124.212 527.272 124.329 527.37 124.453 527.457 124.575 527.547 124.647 527.6 124.714 527.656 124.788 527.707 125.003 527.852 125.226 527.986 125.456 528.111 L310.432 628.097 C311.546 628.699 312.772 628.999 313.999 628.999 L313.999 391.435 C313.999 393.406 313.219 395.326 311.799 396.746 Z" fill="#f2c397" fill-opacity="1" stroke="none"/>
  <g id="group-1"/>
  <g id="group-2"/>
  <g id="group-3"/>
  <g id="group-4"/>
  <g id="group-5"/>
  <g id="group-6"/>
  <g id="group-7"/>
  <g id="group-8"/>
  <g id="group-9"/>
  <g id="group-10"/>
  <g id="group-11"/>
  <g id="group-12"/>
  <g id="group-13"/>
  <g id="group-14"/>
  <g id="group-15"/>
 </g>
 <g id="flock-of-birds">
  <path id="Path-10" d="M355.583 284.604 C331.263 279.466 307.209 284.018 287.261 295.524 273.65 276.927 253.506 263.028 229.187 257.891 176.848 246.826 125.412 280.297 114.348 332.657 114.305 332.858 114.264 333.061 114.222 333.262 113.86 335.002 114.777 336.763 116.408 337.479 118.038 338.198 119.944 337.683 120.987 336.241 141.839 307.572 178.728 300.793 218.344 309.166 242.663 314.305 262.819 328.209 276.419 346.799 296.367 335.302 320.435 330.744 344.752 335.878 384.368 344.244 415.341 365.368 422.829 400.014 423.206 401.755 424.736 402.993 426.519 403 428.301 403.008 429.831 401.769 430.22 400.036 430.263 399.834 430.303 399.641 430.345 399.445 441.414 347.078 407.922 295.661 355.583 284.604 Z" fill="#f05138" fill-opacity="1" stroke="none"/>
  <path id="Path-11" d="M490.886 189.145 C471.925 180.306 451.34 179.471 432.783 185.109 425.157 167.277 411.29 152.048 392.331 143.209 351.504 124.181 302.965 141.852 283.935 182.68 283.935 182.68 283.922 182.692 283.922 182.708 283.266 184.106 283.686 185.778 284.925 186.709 286.149 187.642 287.875 187.593 289.044 186.59 311.565 167.353 342.942 168.863 373.69 183.193 392.651 192.033 406.528 207.261 414.143 225.095 432.685 219.454 453.286 220.29 472.247 229.124 503.609 243.746 525.171 267.432 524.028 297.917 523.988 299.275 524.89 300.478 526.2 300.819 527.522 301.152 528.887 300.52 529.485 299.309 529.778 298.717 530.07 298.124 530.347 297.529 549.377 256.7 531.699 208.168 490.886 189.145 Z" fill="#f05138" fill-opacity="1" stroke="none"/>
  <path id="Path-12" d="M246.324 42.08 C247.172 42.435 248.16 42.15 248.704 41.392 258.853 26.894 277.238 23.066 297.172 26.754 309.464 29.023 319.779 35.76 326.85 44.94 336.733 38.893 348.788 36.289 361.093 38.564 381.027 42.247 396.812 52.393 401.128 69.564 401.35 70.463 402.172 71.083 403.09 71.046 404.009 71.02 404.789 70.351 404.956 69.439 409.855 42.963 392.357 17.524 365.881 12.632 353.576 10.362 341.535 12.957 331.65 19.006 324.579 9.826 314.25 3.089 301.96 0.821 275.469 -4.073 250.037 13.425 245.137 39.908 244.973 40.82 245.46 41.726 246.324 42.08 Z" fill="#f05138" fill-opacity="0.902" stroke="none"/>
  <path id="Path-13" d="M476.283 38.795 C483.311 45.115 487.293 53.537 488.227 62.251 496.981 62.258 505.792 65.348 512.837 71.676 524.697 82.344 530.891 95.763 525.838 109.057 525.643 109.552 525.838 110.109 526.27 110.394 526.716 110.679 527.301 110.616 527.677 110.24 528.094 109.818 528.512 109.379 528.916 108.927 542.529 93.787 541.305 70.471 526.16 56.844 519.129 50.518 510.333 47.434 501.577 47.427 500.645 38.721 496.635 30.293 489.619 23.964 474.475 10.337 451.158 11.569 437.53 26.707 437.057 27.243 437.017 28.016 437.433 28.585 437.836 29.149 438.587 29.35 439.229 29.073 451.505 23.741 464.883 28.543 476.283 38.795 Z" fill="#f05138" fill-opacity="0.755" stroke="none"/>
 </g>
 <g id="open-box-copy">
  <path id="Path-14" d="M377.009 449.976 C375.889 450.585 374.659 450.874 373.439 450.874 371.499 450.874 369.579 450.124 368.139 448.685 L316.199 396.746 C314.779 395.326 313.999 393.406 313.999 391.435 313.999 393.406 313.219 395.326 311.799 396.746 L259.859 448.685 C258.419 450.124 256.499 450.874 254.559 450.874 253.339 450.874 252.109 450.585 250.989 449.976 L121.5 379.792 121.5 521.478 C121.499 521.738 121.512 521.996 121.538 522.251 121.549 522.36 121.57 522.466 121.585 522.573 121.604 522.704 121.619 522.835 121.645 522.964 121.677 523.128 121.721 523.286 121.763 523.444 121.783 523.518 121.798 523.592 121.82 523.665 121.869 523.827 121.928 523.983 121.987 524.14 122.013 524.21 122.035 524.281 122.064 524.351 122.122 524.492 122.189 524.628 122.255 524.765 122.296 524.849 122.333 524.933 122.377 525.017 122.437 525.128 122.503 525.236 122.568 525.343 122.63 525.446 122.689 525.55 122.755 525.652 122.81 525.736 122.872 525.814 122.931 525.894 123.016 526.013 123.1 526.13 123.192 526.244 123.243 526.307 123.3 526.365 123.353 526.426 123.459 526.549 123.565 526.67 123.679 526.785 123.739 526.846 123.803 526.9 123.865 526.957 123.979 527.065 124.091 527.172 124.212 527.272 124.329 527.37 124.453 527.457 124.575 527.547 124.647 527.6 124.714 527.656 124.788 527.707 125.003 527.852 125.226 527.986 125.456 528.111 L310.432 628.097 C311.546 628.699 312.772 628.999 313.999 628.999 315.226 628.999 316.453 628.698 317.565 628.097 L502.541 528.111 C502.771 527.986 502.994 527.851 503.209 527.707 503.283 527.656 503.351 527.6 503.422 527.547 503.545 527.457 503.669 527.369 503.785 527.272 503.906 527.172 504.018 527.065 504.132 526.957 504.193 526.9 504.258 526.846 504.317 526.785 504.431 526.67 504.537 526.549 504.643 526.426 504.696 526.365 504.753 526.307 504.804 526.244 504.896 526.131 504.98 526.014 505.065 525.894 505.124 525.814 505.186 525.736 505.241 525.652 505.307 525.55 505.366 525.447 505.428 525.343 505.493 525.235 505.56 525.128 505.619 525.017 505.663 524.933 505.7 524.849 505.741 524.765 505.807 524.628 505.874 524.492 505.932 524.351 505.961 524.281 505.983 524.21 506.009 524.14 506.068 523.984 506.127 523.827 506.176 523.665 506.198 523.593 506.213 523.518 506.233 523.444 506.275 523.286 506.319 523.128 506.351 522.964 506.377 522.835 506.392 522.704 506.411 522.573 506.426 522.466 506.448 522.36 506.458 522.251 506.484 521.995 506.497 521.737 506.496 521.478 L506.496 379.792 Z" fill="#e2ae83" fill-opacity="1" stroke="none"/>
  <path id="Path-15" d="M563.259 338.095 C564.929 339.775 565.699 342.136 565.359 344.476 565.009 346.806 563.589 348.845 561.509 349.976 L377.009 449.976 C375.889 450.585 374.659 450.874 373.439 450.874 371.499 450.874 369.579 450.124 368.139 448.685 L316.199 396.746 C314.779 395.326 313.999 393.406 313.999 391.435 313.999 391.076 314.029 390.716 314.079 390.355 314.419 388.015 315.849 385.966 317.929 384.845 L502.929 284.845 C504.059 284.236 505.279 283.935 506.499 283.935 508.449 283.935 510.379 284.705 511.819 286.156 Z" fill="#f2c397" fill-opacity="1" stroke="none"/>
  <g id="group-16">
   <path id="Path-16" d="M563.259 338.095 L511.819 286.156 C510.379 284.705 508.449 283.935 506.499 283.935 505.279 283.935 504.059 284.236 502.929 284.845 L483.397 295.409 C484.527 294.8 485.747 294.499 486.967 294.499 488.917 294.499 490.847 295.269 492.287 296.72 L543.727 348.659 C545.397 350.339 546.168 352.7 545.827 355.04 545.477 357.37 544.057 359.409 541.977 360.54 L561.509 349.976 C563.589 348.845 565.009 346.806 565.359 344.476 565.699 342.136 564.929 339.775 563.259 338.095 Z" fill="#e2ae83" fill-opacity="1" stroke="none"/>
  </g>
  <path id="Path-17" d="M313.919 390.355 C313.969 390.716 313.999 391.076 313.999 391.435 313.999 393.406 313.219 395.326 311.799 396.746 L259.859 448.685 C258.419 450.124 256.499 450.874 254.559 450.874 253.339 450.874 252.109 450.585 250.989 449.976 L66.489 349.976 C64.409 348.845 62.989 346.806 62.639 344.476 62.299 342.136 63.069 339.775 64.739 338.095 L116.179 286.156 C117.579 284.746 119.429 283.986 121.319 283.945 121.379 283.955 121.439 283.955 121.499 283.955 121.649 283.955 121.799 283.955 121.959 283.945 123.019 284.015 124.079 284.316 125.069 284.845 L310.069 384.845 C312.149 385.966 313.579 388.015 313.919 390.355 Z" fill="#ffd2a6" fill-opacity="1" stroke="none"/>
  <path id="Path-18" d="M121.959 283.945 C121.799 283.955 121.649 283.955 121.499 283.955 121.439 283.955 121.379 283.955 121.319 283.945 121.529 283.935 121.749 283.935 121.959 283.945 Z" fill="#e2ae83" fill-opacity="1" stroke="none"/>
  <path id="Path-19" d="M504.332 380.966 C504.234 381.154 504.133 381.224 504.03 381.13 L504.029 381.13 476.495 396.054 476.495 537.729 C476.495 537.989 476.483 538.247 476.457 538.502 476.446 538.611 476.425 538.717 476.41 538.824 476.391 538.955 476.376 539.086 476.35 539.215 476.318 539.379 476.274 539.537 476.232 539.695 476.212 539.769 476.197 539.843 476.175 539.916 476.126 540.078 476.067 540.234 476.008 540.391 475.982 540.461 475.96 540.532 475.931 540.602 475.873 540.743 475.806 540.879 475.74 541.016 475.7 541.1 475.662 541.184 475.618 541.268 475.558 541.379 475.492 541.487 475.427 541.594 475.366 541.698 475.306 541.801 475.24 541.903 475.185 541.987 475.123 542.065 475.064 542.145 474.979 542.264 474.895 542.381 474.803 542.495 474.752 542.558 474.695 542.616 474.642 542.677 474.535 542.8 474.43 542.921 474.316 543.036 474.256 543.097 474.192 543.151 474.131 543.208 474.017 543.315 473.905 543.423 473.784 543.522 473.667 543.62 473.543 543.708 473.421 543.797 473.349 543.85 473.282 543.906 473.208 543.957 473.159 543.989 473.106 544.017 473.057 544.049 L502.543 528.11 C502.773 527.985 502.996 527.85 503.211 527.706 503.285 527.655 503.353 527.599 503.424 527.546 503.547 527.456 503.671 527.368 503.787 527.271 503.908 527.171 504.02 527.064 504.134 526.956 504.195 526.899 504.26 526.845 504.319 526.784 504.433 526.669 504.539 526.548 504.645 526.425 504.698 526.364 504.755 526.306 504.806 526.243 504.898 526.13 504.982 526.013 505.067 525.893 505.126 525.813 505.188 525.735 505.243 525.651 505.309 525.549 505.368 525.446 505.43 525.342 505.495 525.234 505.562 525.127 505.621 525.016 505.665 524.932 505.702 524.848 505.743 524.764 505.809 524.627 505.876 524.491 505.934 524.35 505.963 524.28 505.985 524.209 506.011 524.139 506.07 523.983 506.129 523.826 506.178 523.664 506.2 523.592 506.215 523.517 506.235 523.443 506.277 523.285 506.321 523.127 506.353 522.963 506.379 522.834 506.394 522.703 506.413 522.572 506.428 522.465 506.45 522.359 506.46 522.25 506.486 521.994 506.499 521.736 506.498 521.477 L506.498 379.792 Z" fill="#d39c72" fill-opacity="1" stroke="none"/>
  <path id="Path-20" d="M311.799 396.746 L259.859 448.685 C258.419 450.124 256.499 450.874 254.559 450.874 253.339 450.874 252.109 450.585 250.989 449.976 L121.5 379.792 121.5 521.478 C121.499 521.738 121.512 521.996 121.538 522.251 121.549 522.36 121.57 522.466 121.585 522.573 121.604 522.704 121.619 522.835 121.645 522.964 121.677 523.128 121.721 523.286 121.763 523.444 121.783 523.518 121.798 523.592 121.82 523.665 121.869 523.827 121.928 523.983 121.987 524.14 122.013 524.21 122.035 524.281 122.064 524.351 122.122 524.492 122.189 524.628 122.255 524.765 122.296 524.849 122.333 524.933 122.377 525.017 122.437 525.128 122.503 525.236 122.568 525.343 122.63 525.446 122.689 525.55 122.755 525.652 122.81 525.736 122.872 525.814 122.931 525.894 123.016 526.013 123.1 526.13 123.192 526.244 123.243 526.307 123.3 526.365 123.353 526.426 123.459 526.549 123.565 526.67 123.679 526.785 123.739 526.846 123.803 526.9 123.865 526.957 123.979 527.065 124.091 527.172 124.212 527.272 124.329 527.37 124.453 527.457 124.575 527.547 124.647 527.6 124.714 527.656 124.788 527.707 125.003 527.852 125.226 527.986 125.456 528.111 L310.432 628.097 C311.546 628.699 312.772 628.999 313.999 628.999 L313.999 391.435 C313.999 393.406 313.219 395.326 311.799 396.746 Z" fill="#f2c397" fill-opacity="1" stroke="none"/>
  <g id="group-17"/>
  <g id="group-18"/>
  <g id="group-19"/>
  <g id="group-20"/>
  <g id="group-21"/>
  <g id="group-22"/>
  <g id="group-23"/>
  <g id="group-24"/>
  <g id="group-25"/>
  <g id="group-26"/>
  <g id="group-27"/>
  <g id="group-28"/>
  <g id="group-29"/>
  <g id="group-30"/>
  <g id="group-31"/>
 </g>
</svg>
